<svg id="visual" viewBox="0 0 900 600" width="900" height="600" xmlns="http://www.w3.org/2000/svg" xmlns:xlink="http://www.w3.org/1999/xlink" version="1.1"><rect width="900" height="600" fill="#0A192F"></rect><g><g transform="translate(897 223)"><path d="M0 -147L103.9 -103.9L147 0L103.9 103.9L0 147L-103.9 103.9L-147 0L-103.9 -103.9Z" fill="none" stroke="#154321" stroke-width="2"></path></g><g transform="translate(612 445)"><path d="M0 -109L77.1 -77.1L109 0L77.1 77.1L0 109L-77.1 77.1L-109 0L-77.1 -77.1Z" fill="none" stroke="#154321" stroke-width="2"></path></g><g transform="translate(163 392)"><path d="M0 -81L57.3 -57.3L81 0L57.3 57.3L0 81L-57.3 57.3L-81 0L-57.3 -57.3Z" fill="none" stroke="#154321" stroke-width="2"></path></g><g transform="translate(77 4)"><path d="M0 -93L65.8 -65.8L93 0L65.8 65.8L0 93L-65.8 65.8L-93 0L-65.8 -65.8Z" stroke="#154321" fill="none" stroke-width="2"></path></g></g></svg>